<?xml version="1.0" encoding="utf-8"?><!DOCTYPE svg PUBLIC "-//W3C//DTD SVG 1.1//EN" "http://www.w3.org/Graphics/SVG/1.1/DTD/svg11.dtd"><svg version="1.1" xmlns="http://www.w3.org/2000/svg" xmlns:xlink="http://www.w3.org/1999/xlink" width="33" height="32" viewBox="0 0 33 32" data-tags="bus,travel"><g fill="#444" transform="scale(0.03125 0.03125)"><path d="M704 928.384c0 17.696 14.304 32 32 32h32c17.664 0 32-14.304 32-32v-65.984h-96v65.984zM256 928.384c0 17.696 14.304 32 32 32h32c17.696 0 32-14.304 32-32v-65.984h-96v65.984zM159.52 823.328c0 21.44 17.408 38.88 38.88 38.88h659.072c21.472 0 38.88-17.44 38.88-38.88 0-21.504 0-22.88 0-22.88h-736.832c0 0 0 1.376 0 22.88zM1024 320.384v-64h-127.68l0.032-34.816c0-77.792-79.648-157.984-383.168-157.984-266.816 0-353.664 80.192-353.664 157.984v34.816h-127.52v64h-32v128h32v64h127.52v255.168h736l0.704-479.168h95.776v32h-32v128h32v32h-96v32h128v-64h32v-128h-32zM159.52 480.384h-95.52v-32h32v-128h-32v-32h95.52l0 192zM400 158.4h256c8.832 0 16 7.168 16 16s-7.168 16-16 16h-256c-8.832 0-16-7.168-16-16s7.168-16 16-16zM225.312 295.328c0-21.472 17.408-38.88 38.88-38.88h208.448c21.472 0 38.88 17.408 38.88 38.88v114.656c0 21.504-17.408 38.912-38.88 38.912l-208.448 0c-21.472 0-38.88-17.408-38.88-38.912v-114.656zM287.616 695.616c-32.224 0-58.304-26.112-58.304-58.304 0-32.256 26.080-58.304 58.304-58.304s58.336 26.048 58.336 58.304c0.032 32.192-26.112 58.304-58.336 58.304zM384 544.384h288v32h-288v-32zM673.024 702.176h-288.192v-30.88h288.192v30.88zM673.024 638.432h-288.192v-30.88h288.192v30.88zM768.256 697.632c-32.224 0-58.304-26.112-58.304-58.304s26.080-58.304 58.304-58.304 58.336 26.112 58.336 58.304-26.112 58.304-58.336 58.304zM832.16 409.984c0 21.504-17.408 38.912-38.912 38.912h-209.984c-21.504 0-38.912-17.408-38.912-38.912l0-114.656c0-21.472 17.408-38.88 38.912-38.88h209.984c21.504 0 38.912 17.408 38.912 38.88l-0 114.656z" /></g></svg>